<svg width="300" height="300" version="1.1" xmlns="http://www.w3.org/2000/svg" desc="Created with imagetracer.js version 1.2.6" ><path fill="rgb(200,215,227)" stroke="rgb(200,215,227)" stroke-width="1" opacity="1" d="M 141.5 41 L 158 41.5 L 141.5 42 L 141.5 41 Z " /><path fill="rgb(200,215,227)" stroke="rgb(200,215,227)" stroke-width="1" opacity="1" d="M 135.5 42 L 139 42.5 L 135.5 43 L 135.5 42 Z " /><path fill="rgb(200,215,227)" stroke="rgb(200,215,227)" stroke-width="1" opacity="1" d="M 161.5 42 L 165 42.5 L 161.5 43 L 161.5 42 Z " /><path fill="rgb(200,215,227)" stroke="rgb(200,215,227)" stroke-width="1" opacity="1" d="M 130.5 43 L 133 43.5 L 130.5 44 L 130.5 43 Z " /><path fill="rgb(200,215,227)" stroke="rgb(200,215,227)" stroke-width="1" opacity="1" d="M 166.5 43 L 169 43.5 L 166.5 44 L 166.5 43 Z " /><path fill="rgb(200,215,227)" stroke="rgb(200,215,227)" stroke-width="1" opacity="1" d="M 126.5 44 L 129 44.5 L 124.5 46 L 124.5 45 L 126.5 44 Z " /><path fill="rgb(200,215,227)" stroke="rgb(200,215,227)" stroke-width="1" opacity="1" d="M 170.5 44 L 173 44.5 L 170.5 45 L 170.5 44 Z " /><path fill="rgb(200,215,227)" stroke="rgb(200,215,227)" stroke-width="1" opacity="1" d="M 177.5 46 L 181 47.5 L 179.5 48 L 177.5 46 Z " /><path fill="rgb(200,215,227)" stroke="rgb(200,215,227)" stroke-width="1" opacity="1" d="M 116.5 48 L 118 48.5 L 115.5 50 L 116.5 48 Z " /><path fill="rgb(200,215,227)" stroke="rgb(200,215,227)" stroke-width="1" opacity="1" d="M 112.5 50 L 114 50.5 L 111.5 52 L 112.5 50 Z " /><path fill="rgb(200,215,227)" stroke="rgb(200,215,227)" stroke-width="1" opacity="1" d="M 186.5 50 L 192 53.5 L 190.5 53 Q 186.5 52.5 186.5 50 Z " /><path fill="rgb(200,215,227)" stroke="rgb(200,215,227)" stroke-width="1" opacity="1" d="M 109.5 52 L 108.5 54 L 106.5 55 L 107.5 53 L 109.5 52 Z " /><path fill="rgb(200,215,227)" stroke="rgb(200,215,227)" stroke-width="1" opacity="1" d="M 193.5 54 L 195.5 57 L 193.5 54 Z " /><path fill="rgb(200,215,227)" stroke="rgb(200,215,227)" stroke-width="1" opacity="1" d="M 104.5 55 L 102.5 58 L 104.5 55 Z " /><path fill="rgb(200,215,227)" stroke="rgb(200,215,227)" stroke-width="1" opacity="1" d="M 197.5 57 L 200.5 61 L 197.5 57 Z " /><path fill="rgb(200,215,227)" stroke="rgb(200,215,227)" stroke-width="1" opacity="1" d="M 100.5 58 L 88.5 71 L 100.5 58 Z " /><path fill="rgb(200,215,227)" stroke="rgb(200,215,227)" stroke-width="1" opacity="1" d="M 202.5 61 L 207.5 67 L 202.5 61 Z " /><path fill="rgb(200,215,227)" stroke="rgb(200,215,227)" stroke-width="1" opacity="1" d="M 209.5 69 L 212.5 73 L 209.5 69 Z " /><path fill="rgb(200,215,227)" stroke="rgb(200,215,227)" stroke-width="1" opacity="1" d="M 87.5 72 L 85.5 75 L 87.5 72 Z " /><path fill="rgb(200,215,227)" stroke="rgb(200,215,227)" stroke-width="1" opacity="1" d="M 213.5 74 L 214.5 76 L 213.5 74 Z " /><path fill="rgb(200,215,227)" stroke="rgb(200,215,227)" stroke-width="1" opacity="1" d="M 84.5 76 L 83.5 78 L 84.5 76 Z " /><path fill="rgb(200,215,227)" stroke="rgb(200,215,227)" stroke-width="1" opacity="1" d="M 215.5 77 L 216.5 79 L 215.5 77 Z " /><path fill="rgb(200,215,227)" stroke="rgb(200,215,227)" stroke-width="1" opacity="1" d="M 81.5 81 L 81 82.5 L 78.5 88 L 78 86.5 L 81.5 81 Z " /><path fill="rgb(200,215,227)" stroke="rgb(200,215,227)" stroke-width="1" opacity="1" d="M 222.5 90 L 224 94.5 L 223 94.5 L 222.5 90 Z " /><path fill="rgb(200,215,227)" stroke="rgb(200,215,227)" stroke-width="1" opacity="1" d="M 226.5 103 L 227 105.5 L 226 105.5 L 226.5 103 Z " /><path fill="rgb(200,215,227)" stroke="rgb(200,215,227)" stroke-width="1" opacity="1" d="M 72.5 104 L 73 108.5 L 72 108.5 L 72.5 104 Z " /><path fill="rgb(200,215,227)" stroke="rgb(200,215,227)" stroke-width="1" opacity="1" d="M 227.5 108 L 228 114.5 L 227 114.5 L 227.5 108 Z " /><path fill="rgb(200,215,227)" stroke="rgb(200,215,227)" stroke-width="1" opacity="1" d="M 71.5 113 L 72 125.5 L 71 125.5 L 71.5 113 Z " /><path fill="rgb(200,215,227)" stroke="rgb(200,215,227)" stroke-width="1" opacity="1" d="M 227.5 125 L 228 130.5 L 227 130.5 L 227.5 125 Z " /><path fill="rgb(200,215,227)" stroke="rgb(200,215,227)" stroke-width="1" opacity="1" d="M 72.5 130 L 73 134.5 L 72 134.5 L 72.5 130 Z " /><path fill="rgb(200,215,227)" stroke="rgb(200,215,227)" stroke-width="1" opacity="1" d="M 226.5 133 L 227 135.5 L 226 135.5 L 226.5 133 Z " /><path fill="rgb(200,215,227)" stroke="rgb(200,215,227)" stroke-width="1" opacity="1" d="M 225.5 138 L 226 140.5 L 225 140.5 L 225.5 138 Z " /><path fill="rgb(200,215,227)" stroke="rgb(200,215,227)" stroke-width="1" opacity="1" d="M 74.5 140 L 76 144.5 L 75 144.5 L 74.5 140 Z " /><path fill="rgb(200,215,227)" stroke="rgb(200,215,227)" stroke-width="1" opacity="1" d="M 221.5 150 L 222 151.5 L 217.5 159 L 218 157.5 L 221.5 150 Z " /><path fill="rgb(200,215,227)" stroke="rgb(200,215,227)" stroke-width="1" opacity="1" d="M 80.5 156 L 83 159.5 L 81 158.5 L 80.5 156 Z " /><path fill="rgb(200,215,227)" stroke="rgb(200,215,227)" stroke-width="1" opacity="1" d="M 216.5 160 L 216 161.5 L 213.5 165 L 215 162.5 L 216.5 160 Z " /><path fill="rgb(200,215,227)" stroke="rgb(200,215,227)" stroke-width="1" opacity="1" d="M 83.5 161 L 84.5 163 L 83.5 161 Z " /><path fill="rgb(200,215,227)" stroke="rgb(200,215,227)" stroke-width="1" opacity="1" d="M 85.5 164 L 86.5 166 L 85.5 164 Z " /><path fill="rgb(200,215,227)" stroke="rgb(200,215,227)" stroke-width="1" opacity="1" d="M 212.5 166 L 210.5 169 L 212.5 166 Z " /><path fill="rgb(200,215,227)" stroke="rgb(200,215,227)" stroke-width="1" opacity="1" d="M 87.5 167 L 90.5 171 L 87.5 167 Z " /><path fill="rgb(200,215,227)" stroke="rgb(200,215,227)" stroke-width="1" opacity="1" d="M 209.5 170 L 200.5 180 L 209.5 170 Z " /><path fill="rgb(200,215,227)" stroke="rgb(200,215,227)" stroke-width="1" opacity="1" d="M 98.5 178 L 101.5 182 L 98.5 178 Z " /><path fill="rgb(200,215,227)" stroke="rgb(200,215,227)" stroke-width="1" opacity="1" d="M 198.5 180 L 196.5 183 L 198.5 180 Z " /><path fill="rgb(200,215,227)" stroke="rgb(200,215,227)" stroke-width="1" opacity="1" d="M 103.5 182 L 105.5 185 L 103.5 182 Z " /><path fill="rgb(200,215,227)" stroke="rgb(200,215,227)" stroke-width="1" opacity="1" d="M 194.5 183 L 192.5 186 L 190.5 187 L 191.5 185 L 194.5 183 Z " /><path fill="rgb(200,215,227)" stroke="rgb(200,215,227)" stroke-width="1" opacity="1" d="M 107.5 185 L 111 187.5 L 109.5 187 L 107.5 185 Z " /><path fill="rgb(200,215,227)" stroke="rgb(200,215,227)" stroke-width="1" opacity="1" d="M 188.5 187 L 187.5 189 L 186 188.5 L 188.5 187 Z " /><path fill="rgb(200,215,227)" stroke="rgb(200,215,227)" stroke-width="1" opacity="1" d="M 184.5 189 L 183.5 191 L 182 190.5 L 184.5 189 Z " /><path fill="rgb(200,215,227)" stroke="rgb(200,215,227)" stroke-width="1" opacity="1" d="M 118.5 191 L 122 192.5 L 120.5 193 L 118.5 191 Z " /><path fill="rgb(200,215,227)" stroke="rgb(200,215,227)" stroke-width="1" opacity="1" d="M 129.5 195 L 132 195.5 L 129.5 196 L 129.5 195 Z " /><path fill="rgb(200,215,227)" stroke="rgb(200,215,227)" stroke-width="1" opacity="1" d="M 134.5 196 L 137 196.5 L 134.5 197 L 134.5 196 Z " /><path fill="rgb(200,215,227)" stroke="rgb(200,215,227)" stroke-width="1" opacity="1" d="M 163.5 196 L 166 196.5 L 163.5 197 L 163.5 196 Z " /><path fill="rgb(200,215,227)" stroke="rgb(200,215,227)" stroke-width="1" opacity="1" d="M 139.5 197 L 161 197.5 L 139.5 198 L 139.5 197 Z " /><path fill="rgb(200,215,227)" stroke="rgb(200,215,227)" stroke-width="1" opacity="1" d="M 84.5 200 L 89 203.5 L 85.5 201 L 84.5 200 Z " /><path fill="rgb(200,215,227)" stroke="rgb(200,215,227)" stroke-width="1" opacity="1" d="M 211.5 202 L 209.5 205 L 211.5 202 Z " /><path fill="rgb(200,215,227)" stroke="rgb(200,215,227)" stroke-width="1" opacity="1" d="M 217.5 202 L 226 206.5 L 224.5 206 L 217.5 203 L 217.5 202 Z " /><path fill="rgb(200,215,227)" stroke="rgb(200,215,227)" stroke-width="1" opacity="1" d="M 90.5 204 L 91.5 206 L 90.5 204 Z " /><path fill="rgb(200,215,227)" stroke="rgb(200,215,227)" stroke-width="1" opacity="1" d="M 73.5 205 L 72.5 207 L 70.5 208 L 71.5 206 L 73.5 205 Z " /><path fill="rgb(200,215,227)" stroke="rgb(200,215,227)" stroke-width="1" opacity="1" d="M 207.5 205 L 206.5 207 L 207.5 205 Z " /><path fill="rgb(200,215,227)" stroke="rgb(200,215,227)" stroke-width="1" opacity="1" d="M 93.5 206 L 97 208.5 L 95.5 208 L 93.5 206 Z " /><path fill="rgb(200,215,227)" stroke="rgb(200,215,227)" stroke-width="1" opacity="1" d="M 204.5 207 L 203.5 209 L 199.5 211 L 200.5 209 L 204.5 207 Z " /><path fill="rgb(200,215,227)" stroke="rgb(200,215,227)" stroke-width="1" opacity="1" d="M 227.5 207 L 232 210.5 L 229.5 209 L 227.5 207 Z " /><path fill="rgb(200,215,227)" stroke="rgb(200,215,227)" stroke-width="1" opacity="1" d="M 68.5 208 L 67.5 210 L 68.5 208 Z " /><path fill="rgb(200,215,227)" stroke="rgb(200,215,227)" stroke-width="1" opacity="1" d="M 98.5 209 L 99.5 211 L 98.5 209 Z " /><path fill="rgb(200,215,227)" stroke="rgb(200,215,227)" stroke-width="1" opacity="1" d="M 65.5 210 L 64.5 212 L 65.5 210 Z " /><path fill="rgb(200,215,227)" stroke="rgb(200,215,227)" stroke-width="1" opacity="1" d="M 101.5 211 L 104 212.5 L 102.5 212 L 101.5 211 Z " /><path fill="rgb(200,215,227)" stroke="rgb(200,215,227)" stroke-width="1" opacity="1" d="M 233.5 211 L 234.5 213 L 233.5 211 Z " /><path fill="rgb(200,215,227)" stroke="rgb(200,215,227)" stroke-width="1" opacity="1" d="M 61.5 213 L 58.5 217 L 61.5 213 Z " /><path fill="rgb(200,215,227)" stroke="rgb(200,215,227)" stroke-width="1" opacity="1" d="M 105.5 213 L 109 214.5 L 107.5 215 L 105.5 213 Z " /><path fill="rgb(200,215,227)" stroke="rgb(200,215,227)" stroke-width="1" opacity="1" d="M 236.5 213 L 241.5 219 L 236.5 213 Z " /><path fill="rgb(200,215,227)" stroke="rgb(200,215,227)" stroke-width="1" opacity="1" d="M 185.5 216 L 187 216.5 L 183.5 218 L 183.5 217 L 185.5 216 Z " /><path fill="rgb(200,215,227)" stroke="rgb(200,215,227)" stroke-width="1" opacity="1" d="M 55.5 218 L 50.5 224 L 55.5 218 Z " /><path fill="rgb(200,215,227)" stroke="rgb(200,215,227)" stroke-width="1" opacity="1" d="M 179.5 218 L 182 218.5 L 179.5 219 L 179.5 218 Z " /><path fill="rgb(200,215,227)" stroke="rgb(200,215,227)" stroke-width="1" opacity="1" d="M 125.5 220 L 128 220.5 L 125.5 221 L 125.5 220 Z " /><path fill="rgb(200,215,227)" stroke="rgb(200,215,227)" stroke-width="1" opacity="1" d="M 171.5 220 L 175 220.5 L 171.5 221 L 171.5 220 Z " /><path fill="rgb(200,215,227)" stroke="rgb(200,215,227)" stroke-width="1" opacity="1" d="M 244.5 220 L 245.5 222 L 244.5 220 Z " /><path fill="rgb(200,215,227)" stroke="rgb(200,215,227)" stroke-width="1" opacity="1" d="M 129.5 221 L 132 221.5 L 129.5 222 L 129.5 221 Z " /><path fill="rgb(200,215,227)" stroke="rgb(200,215,227)" stroke-width="1" opacity="1" d="M 167.5 221 L 170 221.5 L 167.5 222 L 167.5 221 Z " /><path fill="rgb(200,215,227)" stroke="rgb(200,215,227)" stroke-width="1" opacity="1" d="M 135.5 222 L 142 222.5 L 135.5 223 L 135.5 222 Z " /><path fill="rgb(200,215,227)" stroke="rgb(200,215,227)" stroke-width="1" opacity="1" d="M 158.5 222 L 165 222.5 L 158.5 223 L 158.5 222 Z " /><path fill="rgb(200,215,227)" stroke="rgb(200,215,227)" stroke-width="1" opacity="1" d="M 248.5 225 L 252.5 230 L 248.5 225 Z " /><path fill="rgb(200,215,227)" stroke="rgb(200,215,227)" stroke-width="1" opacity="1" d="M 47.5 227 L 44.5 231 L 47.5 227 Z " /><path fill="rgb(200,215,227)" stroke="rgb(200,215,227)" stroke-width="1" opacity="1" d="M 253.5 231 L 255.5 234 L 253.5 231 Z " /><path fill="rgb(200,215,227)" stroke="rgb(200,215,227)" stroke-width="1" opacity="1" d="M 43.5 232 L 41.5 235 L 43.5 232 Z " /><path fill="rgb(200,215,227)" stroke="rgb(200,215,227)" stroke-width="1" opacity="1" d="M 256.5 235 L 258.5 238 L 256.5 235 Z " /><path fill="rgb(200,215,227)" stroke="rgb(200,215,227)" stroke-width="1" opacity="1" d="M 40.5 236 L 39.5 238 L 40.5 236 Z " /><path fill="rgb(200,215,227)" stroke="rgb(200,215,227)" stroke-width="1" opacity="1" d="M 38.5 239 L 37.5 241 L 38.5 239 Z " /><path fill="rgb(200,215,227)" stroke="rgb(200,215,227)" stroke-width="1" opacity="1" d="M 259.5 239 L 260.5 241 L 259.5 239 Z " /><path fill="rgb(200,215,227)" stroke="rgb(200,215,227)" stroke-width="1" opacity="1" d="M 36.5 242 L 35.5 244 L 36.5 242 Z " /><path fill="rgb(200,215,227)" stroke="rgb(200,215,227)" stroke-width="1" opacity="1" d="M 261.5 242 L 264 245.5 L 262 244.5 L 261.5 242 Z " /><path fill="rgb(200,215,227)" stroke="rgb(200,215,227)" stroke-width="1" opacity="1" d="M 34.5 245 L 34 246.5 L 28.5 257 L 29 255.5 L 34.5 245 Z " /><path fill="rgb(200,215,227)" stroke="rgb(200,215,227)" stroke-width="1" opacity="1" d="M 265.5 249 L 271 259.5 L 270 259.5 L 265.5 249 Z " /><path fill="rgb(200,215,227)" stroke="rgb(200,215,227)" stroke-width="1" opacity="1" d="M 27.5 258 L 28 259.5 L 26.5 262 L 26 260.5 L 27.5 258 Z " /><path fill="rgb(200,215,227)" stroke="rgb(200,215,227)" stroke-width="1" opacity="1" d="M 272.5 263 L 274 266.5 L 273 266.5 L 272.5 263 Z " /><path fill="rgb(200,215,227)" stroke="rgb(200,215,227)" stroke-width="1" opacity="1" d="M 274.5 268 L 276 271.5 L 275 271.5 L 274.5 268 Z " /><path fill="rgb(200,215,227)" stroke="rgb(200,215,227)" stroke-width="1" opacity="1" d="M 19.5 279 L 20 281.5 L 19 281.5 L 19.5 279 Z " /><path fill="rgb(200,215,227)" stroke="rgb(200,215,227)" stroke-width="1" opacity="1" d="M 278.5 280 L 280 284.5 L 279 284.5 L 278.5 280 Z " /><path fill="rgb(200,215,227)" stroke="rgb(200,215,227)" stroke-width="1" opacity="1" d="M 17.5 287 L 18 289.5 L 17 289.5 L 17.5 287 Z " /><path fill="rgb(200,215,227)" stroke="rgb(200,215,227)" stroke-width="1" opacity="1" d="M 280.5 287 L 281 289.5 L 280 289.5 L 280.5 287 Z " /><path fill="rgb(200,215,227)" stroke="rgb(200,215,227)" stroke-width="1" opacity="1" d="M 281.5 291 L 282 294.5 L 281 294.5 L 281.5 291 Z " /><path fill="rgb(200,215,227)" stroke="rgb(200,215,227)" stroke-width="1" opacity="1" d="M 16.5 292 L 17 294.5 L 16 294.5 L 16.5 292 Z " /><path fill="rgb(200,215,227)" stroke="rgb(200,215,227)" stroke-width="1" opacity="1" d="M 15.5 297 L 16 299.5 L 15 299.5 L 15.5 297 Z " /><path fill="rgb(200,215,227)" stroke="rgb(200,215,227)" stroke-width="1" opacity="1" d="M 282.5 297 L 283 299.5 L 282 299.5 L 282.5 297 Z " /><path fill="rgb(50,137,200)" stroke="rgb(50,137,200)" stroke-width="1" opacity="1" d="M 139.5 42 L 160.5 42 L 176.5 46 Q 196.4 53.6 209 68.5 Q 227.4 87.6 228 124.5 L 225 141.5 L 217 159.5 Q 209.9 171.4 199.5 180 Q 187.7 189.7 171.5 195 L 162.5 197 L 137.5 197 Q 107.5 191 91 171.5 Q 79.2 158.8 74 139.5 L 72 129.5 L 72 109.5 Q 78.1 75.1 101.5 58 L 120.5 47 L 139.5 42 Z " /><path fill="rgb(50,137,200)" stroke="rgb(50,137,200)" stroke-width="1" opacity="1" d="M 83.5 201 L 85.5 201 L 99.5 211 L 121.5 220 L 135.5 223 L 164.5 223 Q 195.1 217.6 214.5 201 Q 233.2 208.8 246 222.5 L 248 225.5 Q 275.1 253.2 282 300 L 16.5 300 Q 15.5 300 16 295.5 Q 19.9 274.4 28 257.5 Q 39.3 233.8 57.5 217 Q 68.5 207 83.5 201 Z " /><path fill="rgb(232,233,233)" stroke="rgb(232,233,233)" stroke-width="1" opacity="1" d="M 132.5 42 L 135 42.5 L 132.5 43 L 132.5 42 Z " /><path fill="rgb(232,233,233)" stroke="rgb(232,233,233)" stroke-width="1" opacity="1" d="M 115.5 48 L 114.5 50 L 115.5 48 Z " /><path fill="rgb(232,233,233)" stroke="rgb(232,233,233)" stroke-width="1" opacity="1" d="M 111.5 50 L 110.5 52 L 108.5 53 L 109.5 51 L 111.5 50 Z " /><path fill="rgb(232,233,233)" stroke="rgb(232,233,233)" stroke-width="1" opacity="1" d="M 106.5 53 L 105.5 55 L 106.5 53 Z " /><path fill="rgb(232,233,233)" stroke="rgb(232,233,233)" stroke-width="1" opacity="1" d="M 194.5 54 L 196.5 57 L 194.5 54 Z " /><path fill="rgb(232,233,233)" stroke="rgb(232,233,233)" stroke-width="1" opacity="1" d="M 103.5 55 L 101.5 58 L 103.5 55 Z " /><path fill="rgb(232,233,233)" stroke="rgb(232,233,233)" stroke-width="1" opacity="1" d="M 198.5 57 L 201.5 61 L 198.5 57 Z " /><path fill="rgb(232,233,233)" stroke="rgb(232,233,233)" stroke-width="1" opacity="1" d="M 96.5 61 L 89.5 69 L 96.5 61 Z " /><path fill="rgb(232,233,233)" stroke="rgb(232,233,233)" stroke-width="1" opacity="1" d="M 208.5 67 L 211.5 71 L 208.5 67 Z " /><path fill="rgb(232,233,233)" stroke="rgb(232,233,233)" stroke-width="1" opacity="1" d="M 87.5 71 L 86.5 73 L 87.5 71 Z " /><path fill="rgb(232,233,233)" stroke="rgb(232,233,233)" stroke-width="1" opacity="1" d="M 84.5 75 L 83.5 77 L 84.5 75 Z " /><path fill="rgb(232,233,233)" stroke="rgb(232,233,233)" stroke-width="1" opacity="1" d="M 215.5 76 L 216.5 78 L 215.5 76 Z " /><path fill="rgb(232,233,233)" stroke="rgb(232,233,233)" stroke-width="1" opacity="1" d="M 82.5 78 L 82 79.5 L 81.5 81 L 81 79.5 L 82.5 78 Z " /><path fill="rgb(232,233,233)" stroke="rgb(232,233,233)" stroke-width="1" opacity="1" d="M 219.5 83 L 221 85.5 L 220 85.5 L 219.5 83 Z " /><path fill="rgb(232,233,233)" stroke="rgb(232,233,233)" stroke-width="1" opacity="1" d="M 218.5 158 L 217.5 160 L 218.5 158 Z " /><path fill="rgb(232,233,233)" stroke="rgb(232,233,233)" stroke-width="1" opacity="1" d="M 81.5 159 L 82.5 161 L 81.5 159 Z " /><path fill="rgb(232,233,233)" stroke="rgb(232,233,233)" stroke-width="1" opacity="1" d="M 83.5 162 L 84.5 164 L 83.5 162 Z " /><path fill="rgb(232,233,233)" stroke="rgb(232,233,233)" stroke-width="1" opacity="1" d="M 214.5 164 L 213.5 166 L 214.5 164 Z " /><path fill="rgb(232,233,233)" stroke="rgb(232,233,233)" stroke-width="1" opacity="1" d="M 85.5 165 L 86.5 167 L 85.5 165 Z " /><path fill="rgb(232,233,233)" stroke="rgb(232,233,233)" stroke-width="1" opacity="1" d="M 87.5 168 L 91.5 173 L 87.5 168 Z " /><path fill="rgb(232,233,233)" stroke="rgb(232,233,233)" stroke-width="1" opacity="1" d="M 211.5 168 L 210.5 170 L 211.5 168 Z " /><path fill="rgb(232,233,233)" stroke="rgb(232,233,233)" stroke-width="1" opacity="1" d="M 97.5 178 L 98.5 180 L 97.5 178 Z " /><path fill="rgb(232,233,233)" stroke="rgb(232,233,233)" stroke-width="1" opacity="1" d="M 199.5 180 L 198.5 182 L 199.5 180 Z " /><path fill="rgb(232,233,233)" stroke="rgb(232,233,233)" stroke-width="1" opacity="1" d="M 102.5 182 L 103.5 184 L 102.5 182 Z " /><path fill="rgb(232,233,233)" stroke="rgb(232,233,233)" stroke-width="1" opacity="1" d="M 195.5 183 L 197 183.5 L 193.5 186 L 195.5 183 Z " /><path fill="rgb(232,233,233)" stroke="rgb(232,233,233)" stroke-width="1" opacity="1" d="M 106.5 185 L 107.5 187 L 106.5 185 Z " /><path fill="rgb(232,233,233)" stroke="rgb(232,233,233)" stroke-width="1" opacity="1" d="M 189.5 187 L 188.5 189 L 189.5 187 Z " /><path fill="rgb(232,233,233)" stroke="rgb(232,233,233)" stroke-width="1" opacity="1" d="M 185.5 189 L 184.5 191 L 185.5 189 Z " /><path fill="rgb(232,233,233)" stroke="rgb(232,233,233)" stroke-width="1" opacity="1" d="M 131.5 196 L 134 196.5 L 131.5 197 L 131.5 196 Z " /><path fill="rgb(232,233,233)" stroke="rgb(232,233,233)" stroke-width="1" opacity="1" d="M 144.5 198 L 155 198.5 L 144.5 199 L 144.5 198 Z " /><path fill="rgb(232,233,233)" stroke="rgb(232,233,233)" stroke-width="1" opacity="1" d="M 213.5 200 L 215 200.5 L 212.5 202 L 213.5 200 Z " /><path fill="rgb(232,233,233)" stroke="rgb(232,233,233)" stroke-width="1" opacity="1" d="M 88.5 202 L 91 203.5 L 89.5 204 L 88.5 202 Z " /><path fill="rgb(232,233,233)" stroke="rgb(232,233,233)" stroke-width="1" opacity="1" d="M 209.5 203 L 208.5 205 L 209.5 203 Z " /><path fill="rgb(232,233,233)" stroke="rgb(232,233,233)" stroke-width="1" opacity="1" d="M 206.5 205 L 205.5 207 L 206.5 205 Z " /><path fill="rgb(232,233,233)" stroke="rgb(232,233,233)" stroke-width="1" opacity="1" d="M 225.5 205 L 226.5 207 L 225.5 205 Z " /><path fill="rgb(232,233,233)" stroke="rgb(232,233,233)" stroke-width="1" opacity="1" d="M 96.5 207 L 97.5 209 L 96.5 207 Z " /><path fill="rgb(232,233,233)" stroke="rgb(232,233,233)" stroke-width="1" opacity="1" d="M 99.5 209 L 100.5 211 L 99.5 209 Z " /><path fill="rgb(232,233,233)" stroke="rgb(232,233,233)" stroke-width="1" opacity="1" d="M 231.5 209 L 232.5 211 L 231.5 209 Z " /><path fill="rgb(232,233,233)" stroke="rgb(232,233,233)" stroke-width="1" opacity="1" d="M 63.5 211 L 62.5 213 L 63.5 211 Z " /><path fill="rgb(232,233,233)" stroke="rgb(232,233,233)" stroke-width="1" opacity="1" d="M 103.5 211 L 104.5 213 L 103.5 211 Z " /><path fill="rgb(232,233,233)" stroke="rgb(232,233,233)" stroke-width="1" opacity="1" d="M 234.5 211 L 235.5 213 L 234.5 211 Z " /><path fill="rgb(232,233,233)" stroke="rgb(232,233,233)" stroke-width="1" opacity="1" d="M 59.5 214 L 56.5 218 L 59.5 214 Z " /><path fill="rgb(232,233,233)" stroke="rgb(232,233,233)" stroke-width="1" opacity="1" d="M 240.5 216 L 243.5 220 L 240.5 216 Z " /><path fill="rgb(232,233,233)" stroke="rgb(232,233,233)" stroke-width="1" opacity="1" d="M 142.5 222 L 145 222.5 L 142.5 223 L 142.5 222 Z " /><path fill="rgb(232,233,233)" stroke="rgb(232,233,233)" stroke-width="1" opacity="1" d="M 155.5 222 L 158 222.5 L 155.5 223 L 155.5 222 Z " /><path fill="rgb(232,233,233)" stroke="rgb(232,233,233)" stroke-width="1" opacity="1" d="M 246.5 222 L 249.5 226 L 246.5 222 Z " /><path fill="rgb(232,233,233)" stroke="rgb(232,233,233)" stroke-width="1" opacity="1" d="M 49.5 224 L 46.5 228 L 49.5 224 Z " /><path fill="rgb(232,233,233)" stroke="rgb(232,233,233)" stroke-width="1" opacity="1" d="M 253.5 230 L 255.5 233 L 253.5 230 Z " /><path fill="rgb(232,233,233)" stroke="rgb(232,233,233)" stroke-width="1" opacity="1" d="M 43.5 231 L 41.5 234 L 43.5 231 Z " /><path fill="rgb(232,233,233)" stroke="rgb(232,233,233)" stroke-width="1" opacity="1" d="M 256.5 234 L 257.5 236 L 256.5 234 Z " /><path fill="rgb(232,233,233)" stroke="rgb(232,233,233)" stroke-width="1" opacity="1" d="M 38.5 238 L 37.5 240 L 38.5 238 Z " /><path fill="rgb(232,233,233)" stroke="rgb(232,233,233)" stroke-width="1" opacity="1" d="M 36.5 241 L 35.5 243 L 36.5 241 Z " /><path fill="rgb(232,233,233)" stroke="rgb(232,233,233)" stroke-width="1" opacity="1" d="M 261.5 241 L 262.5 243 L 261.5 241 Z " /><path fill="rgb(232,233,233)" stroke="rgb(232,233,233)" stroke-width="1" opacity="1" d="M 271.5 260 L 273 262.5 L 272 262.5 L 271.5 260 Z " /><path fill="rgb(232,233,233)" stroke="rgb(232,233,233)" stroke-width="1" opacity="1" d="M 16.5 289 L 17 291.5 L 16 291.5 L 16.5 289 Z " /><path fill="rgb(233,233,233)" stroke="rgb(233,233,233)" stroke-width="1" opacity="1" d="M 0 0 L 300 0 L 300 300 L 283.5 300 L 283 296.5 L 280 281.5 L 273 261.5 L 263 242.5 L 252 227 Q 249.3 228.1 250 225.5 L 240.5 216 L 239 216 Q 240.1 213.3 237.5 214 Q 228.1 204.4 213.5 200 L 201.5 209 L 181.5 218 L 165.5 222 L 145.5 223 L 144.5 222 L 133.5 222 L 129.5 220 L 124.5 220 Q 122.8 217.2 117.5 218 L 91 205 Q 92.1 202.3 89.5 203 L 83.5 200 Q 60.5 209.5 46 227.5 L 44 230.5 Q 20.8 257 15 300 L 0.5 300 L 0 299.5 L 0 0 Z M 141 41 Q 139 44 133 42 L 116 48 L 104 55 L 100 59 L 97 61 L 83 77 L 77 88 L 72 104 L 72 112 L 71 113 L 72 136 L 77 152 Q 85 169 99 180 Q 101 179 100 182 Q 110 190 125 195 L 145 199 L 155 199 L 175 195 L 189 189 L 196 184 Q 198 185 197 182 L 201 180 Q 203 181 202 178 L 204 178 L 204 176 L 206 176 L 206 174 L 208 174 L 223 151 L 228 133 L 228 107 L 221 85 L 215 76 Q 216 73 213 74 L 212 71 L 206 63 L 195 54 L 180 46 L 167 42 L 141 41 Z " /></svg>